{"title":"Xiao Wanyi (1933)","uid":13539169,"size":1092435880,"categoryP":"video","categoryS":"movies","magnet":"?xt=urn:btih:2dc6531762f48f83c0d424560fb910a9e87db748&amp;dn=Xiao+Wanyi+%281933%29&amp;tr=udp%3A%2F%2Ftracker.leechers-paradise.org%3A6969&amp;tr=udp%3A%2F%2Fzer0day.ch%3A1337&amp;tr=udp%3A%2F%2Fopen.demonii.com%3A1337&amp;tr=udp%3A%2F%2Ftracker.coppersurfer.tk%3A6969&amp;tr=udp%3A%2F%2Fexodus.desync.com%3A6969","seeders":1,"leechers":0,"uploader":"wesleybl","files":2,"time":1455468619,"description":"Xiao Wanyi (1933)\r\n\r\nDirector: Yu Sun\r\n \nhttp://www.imdb.com/title/tt0121890\r\n\r\n\r\nVideo\r\nID                                       : 224 (0xE0)\r\nFormat                                   : MPEG Video\r\nFormat version                           : Version 1\r\nFormat settings, BVOP                    : Yes\r\nFormat settings, Matrix                  : Default\r\nFormat settings, GOP                     : M=3, N=18\r\nDuration                                 : 52mn 28s\r\nBit rate                                 : 1 160 Kbps\r\nMaximum bit rate                         : 1 120 Kbps\r\nWidth                                    : 352 pixels\r\nHeight                                   : 288 pixels\r\nDisplay aspect ratio                     : 4:3\r\nFrame rate                               : 25.000 fps\r\nStandard                                 : PAL\r\nColor space                              : YUV\r\nChroma subsampling                       : 4:2:0\r\nBit depth                                : 8 bits\r\nScan type                                : Progressive\r\nCompression mode                         : Lossy\r\nBits/(Pixel*Frame)                       : 0.458\r\nTime code of first frame                 : 00:00:00:00\r\nTime code source                         : Group of pictures header\r\nStream size                              : 435 MiB (82%)\r\n\r\nAudio\r\nID                                       : 192 (0xC0)\r\nFormat                                   : MPEG Audio\r\nFormat version                           : Version 1\r\nFormat profile                           : Layer 2\r\nDuration                                 : 52mn 28s\r\nBit rate mode                            : Constant\r\nBit rate                                 : 224 Kbps\r\nChannel(s)                               : 2 channels\r\nSampling rate                            : 44.1 KHz\r\nCompression mode                         : Lossy\r\nDelay relative to video                  : -80ms\r\nStream size                              : 84.1 MiB (16%)","torrent":{"xt":"urn:btih:2dc6531762f48f83c0d424560fb910a9e87db748","amp;dn":"Xiao+Wanyi+%281933%29","amp;tr":["udp%3A%2F%2Ftracker.leechers-paradise.org%3A6969","udp%3A%2F%2Fzer0day.ch%3A1337","udp%3A%2F%2Fopen.demonii.com%3A1337","udp%3A%2F%2Ftracker.coppersurfer.tk%3A6969","udp%3A%2F%2Fexodus.desync.com%3A6969"],"infoHash":"2dc6531762f48f83c0d424560fb910a9e87db748","infoHashBuffer":{"type":"Buffer","data":[45,198,83,23,98,244,143,131,192,212,36,86,15,185,16,169,232,125,183,72]},"announce":[],"urlList":[]}}